<svg width="32" height="32" viewBox="0 0 32 32" fill="none" xmlns="http://www.w3.org/2000/svg">
<path d="M25.3708 4.19259H22.4758V2.89747C22.4758 2.47845 22.0187 2.28801 21.5997 2.28801H19.3522C18.819 0.764314 17.4857 0.00246642 15.962 0.00246642C14.4551 -0.0541855 13.0844 0.869816 12.5718 2.28801H10.3625C9.94344 2.28801 9.52442 2.47845 9.52442 2.89747V4.19259H6.62934C4.91374 4.21089 3.51021 5.56427 3.42957 7.27804V29.1049C3.42957 30.781 4.95326 31.9999 6.62934 31.9999H25.3708C27.0468 31.9999 28.5705 30.781 28.5705 29.1049V7.27811C28.4899 5.56427 27.0864 4.21089 25.3708 4.19259ZM11.048 3.8117H13.1431C13.5089 3.76708 13.8026 3.48885 13.8669 3.12605C14.0925 2.14365 14.9544 1.43845 15.962 1.41191C16.9603 1.44217 17.8092 2.14955 18.019 3.12605C18.0873 3.50139 18.4005 3.7832 18.7808 3.8117H20.9521V6.85909H11.048V3.8117ZM27.0468 29.105C27.0468 29.943 26.2088 30.4763 25.3708 30.4763H6.62934C5.7913 30.4763 4.95326 29.943 4.95326 29.105V7.27811C5.03098 6.40581 5.75368 5.73233 6.62934 5.71636H9.52435V7.65907C9.56459 8.08589 9.93425 8.40517 10.3624 8.38286H21.5996C22.0356 8.4067 22.4168 8.0918 22.4757 7.65907V5.71629H25.3707C26.2463 5.73233 26.969 6.40573 27.0468 7.27804V29.105H27.0468Z" fill="#547DE2"/>
<path d="M13.0669 17.0297C12.7812 16.7286 12.3068 16.7116 12.0003 16.9917L9.56237 19.3153L8.53389 18.2487C8.24815 17.9475 7.77379 17.9306 7.46727 18.2106C7.1722 18.5198 7.1722 19.0061 7.46727 19.3153L9.02903 20.9152C9.1642 21.0665 9.35946 21.1502 9.5623 21.1437C9.76324 21.1409 9.95492 21.0587 10.0956 20.9152L13.0668 18.0964C13.3613 17.8262 13.381 17.3683 13.1107 17.0738C13.0969 17.0584 13.0822 17.0437 13.0669 17.0297Z" fill="#547DE2"/>
<path d="M23.9995 18.6677H15.2383C14.8175 18.6677 14.4764 19.0088 14.4764 19.4295C14.4764 19.8503 14.8175 20.1914 15.2383 20.1914H23.9995C24.4203 20.1914 24.7613 19.8503 24.7613 19.4295C24.7613 19.0088 24.4203 18.6677 23.9995 18.6677Z" fill="#547DE2"/>
<path d="M13.0669 10.935C12.7812 10.6338 12.3068 10.6168 12.0003 10.8969L9.56237 13.2205L8.53389 12.1539C8.24815 11.8527 7.77379 11.8357 7.46727 12.1159C7.1722 12.425 7.1722 12.9114 7.46727 13.2205L9.02903 14.8204C9.1642 14.9718 9.35946 15.0555 9.5623 15.049C9.76324 15.0462 9.95492 14.964 10.0956 14.8204L13.0668 12.0016C13.3613 11.7314 13.381 11.2735 13.1107 10.979C13.0969 10.9636 13.0822 10.949 13.0669 10.935Z" fill="#547DE2"/>
<path d="M23.9995 12.5729H15.2383C14.8175 12.5729 14.4764 12.914 14.4764 13.3348C14.4764 13.7555 14.8175 14.0966 15.2383 14.0966H23.9995C24.4203 14.0966 24.7613 13.7555 24.7613 13.3348C24.7613 12.914 24.4203 12.5729 23.9995 12.5729Z" fill="#547DE2"/>
<path d="M13.0669 23.1244C12.7812 22.8233 12.3068 22.8063 12.0003 23.0864L9.56237 25.41L8.53389 24.3434C8.24815 24.0422 7.77379 24.0253 7.46727 24.3053C7.1722 24.6145 7.1722 25.1008 7.46727 25.41L9.02903 27.0099C9.1642 27.1612 9.35946 27.2449 9.5623 27.2385C9.76324 27.2356 9.95492 27.1534 10.0956 27.0099L13.0668 24.1911C13.3613 23.9209 13.381 23.463 13.1107 23.1685C13.0969 23.1532 13.0822 23.1385 13.0669 23.1244Z" fill="#547DE2"/>
<path d="M23.9995 24.7625H15.2383C14.8175 24.7625 14.4764 25.1036 14.4764 25.5243C14.4764 25.9451 14.8175 26.2862 15.2383 26.2862H23.9995C24.4203 26.2862 24.7613 25.9451 24.7613 25.5243C24.7613 25.1036 24.4203 24.7625 23.9995 24.7625Z" fill="#547DE2"/>
</svg>
