<svg width="14" height="12" viewBox="0 0 14 12" fill="none" xmlns="http://www.w3.org/2000/svg">
<path d="M9.3623 5.58825H8.19809V4.42403C8.19966 4.18923 8.01058 3.99758 7.77577 3.99601H6.09508C5.86027 3.99601 5.66991 4.18637 5.66991 4.42118V5.5854H4.50854C4.27374 5.58383 4.08209 5.77287 4.08052 6.00767C4.08052 6.0096 4.08052 6.01149 4.08052 6.01342V7.68841C4.08052 7.92321 4.27088 8.11357 4.50569 8.11357H5.66991V9.27494C5.66834 9.50974 5.85742 9.70139 6.09222 9.70296H7.77006C8.00487 9.70296 8.19523 9.5126 8.19523 9.27779V8.11357H9.35945C9.59425 8.11514 9.7859 7.92606 9.78747 7.69126V6.01342C9.78747 5.77861 9.59715 5.58825 9.3623 5.58825ZM9.21678 7.54288H7.91274C7.75516 7.54288 7.62739 7.67064 7.62739 7.82823V9.13226H6.2406V7.82823C6.2406 7.67064 6.11284 7.54288 5.95526 7.54288H4.65122V6.15894H5.95526C6.11284 6.15894 6.2406 6.03118 6.2406 5.8736V4.5667H7.62454V5.87074C7.62454 6.02833 7.7523 6.15609 7.90989 6.15609H9.21678V7.54288Z" fill="white"/>
<path d="M11.899 1.86161H9.54773V0.857187C9.56253 0.398848 9.20295 0.01527 8.74462 0.0004676C8.72125 -0.000281437 8.69789 -6.74585e-05 8.67456 0.00114527H5.19332C4.73534 -0.0227169 4.34474 0.329188 4.32084 0.787134C4.31963 0.810462 4.31938 0.833824 4.32016 0.857187V1.8559H1.9689C1.06149 1.8559 0 2.37238 0 3.8248V10.0311C0 11.4835 1.06149 12 1.9689 12H11.899C12.8064 12 13.8679 11.4835 13.8679 10.0311V3.83051C13.8679 2.37809 12.8092 1.86161 11.899 1.86161ZM4.89085 0.857187C4.89085 0.774437 4.89085 0.551866 5.19618 0.551866H8.67456C8.97988 0.551866 8.97988 0.771583 8.97988 0.857187V1.8559H4.89085V0.857187ZM13.2972 10.0311C13.2972 11.2923 12.3213 11.4293 11.899 11.4293H1.9689C1.54944 11.4293 0.570695 11.2923 0.570695 10.0311V3.83051C0.570695 2.56927 1.54658 2.4323 1.9689 2.4323H11.899C12.3184 2.4323 13.2972 2.56927 13.2972 3.83051V10.0311Z" fill="white"/>
</svg>
