<svg width="21" height="16" viewBox="0 0 21 16" fill="none" xmlns="http://www.w3.org/2000/svg">
<path d="M18.1674 5.09722L16.9824 4.33789V1.87584C16.9824 1.72405 16.8594 1.60097 16.7075 1.60097C16.5557 1.60097 16.4326 1.72405 16.4326 1.87584V4.48809C16.4326 4.58184 16.4804 4.66909 16.5593 4.71952L17.8707 5.55996C17.9987 5.64181 18.1686 5.60463 18.2505 5.47676C18.3324 5.3489 18.2951 5.17919 18.1674 5.09722Z" fill="#4F4F4F"/>
<path fill-rule="evenodd" clip-rule="evenodd" d="M16.8329 8.00486C19.0434 8.00486 20.8353 6.21291 20.8353 4.00243C20.8353 1.79195 19.0434 0 16.8329 0C14.6224 0 12.8304 1.79195 12.8304 4.00243C12.8304 6.21291 14.6224 8.00486 16.8329 8.00486ZM16.8329 7.36447C18.6897 7.36447 20.1949 5.85923 20.1949 4.00243C20.1949 2.14563 18.6897 0.640389 16.8329 0.640389C14.9761 0.640389 13.4708 2.14563 13.4708 4.00243C13.4708 5.85923 14.9761 7.36447 16.8329 7.36447Z" fill="#4F4F4F"/>
<path fill-rule="evenodd" clip-rule="evenodd" d="M2.28479 2.31923H11.2463C11.2463 2.31996 11.2462 2.32068 11.2462 2.32141H12.4302V3.00182H11.2295V2.9998H2.28479C1.51929 3.00072 0.861051 3.54153 0.711112 4.29214L8.18178 10.6178C8.7071 11.0652 9.47959 11.0651 10.0048 10.6171L13.3739 7.75988C13.5414 7.91734 13.7168 8.06641 13.8996 8.20641L10.4448 11.1363C9.66644 11.8002 8.52101 11.8008 7.74215 11.1374L0.680578 5.15805V13.7152C0.680274 13.9827 0.747268 14.2463 0.875635 14.4813L4.941 10.3231C5.02577 10.2349 5.15125 10.199 5.26975 10.2289C5.38824 10.259 5.48167 10.3502 5.51433 10.4681C5.54699 10.5859 5.51372 10.7123 5.42758 10.7989L1.32226 14.9978C1.59966 15.2069 1.93751 15.3199 2.28479 15.3194H15.8963C16.2426 15.3199 16.5799 15.2075 16.8568 14.9993L12.7289 10.7994L13.2142 10.3224L17.3042 14.4837C17.4333 14.2481 17.5009 13.9838 17.5005 13.7152V9.58527L17.5013 9.58533V8.4051H18.1817L18.1811 13.7152C18.1797 14.9766 17.1576 15.9986 15.8963 16H2.28479C1.66407 16.0002 1.07008 15.7471 0.64032 15.2994C0.592619 15.2676 0.553729 15.2245 0.527296 15.1736C0.186098 14.7642 -0.000604706 14.2481 1.47145e-06 13.7152V4.60402C0.00137017 3.34267 1.0236 2.3206 2.28479 2.31923ZM18.0194 9.60583H18.0478L18.0336 9.60584L18.0194 9.60583Z" fill="#4F4F4F"/>
</svg>
