<svg width="16" height="16" viewBox="0 0 16 16" fill="none" xmlns="http://www.w3.org/2000/svg">
<path d="M15.6667 16H0.333333C0.149333 16 0 15.8442 0 15.6522C0 15.4602 0.149333 15.3043 0.333333 15.3043H15.6667C15.8507 15.3043 16 15.4602 16 15.6522C16 15.8442 15.8507 16 15.6667 16Z" fill="#4F4F4F"/>
<path d="M4.33331 16H0.999975C0.815975 16 0.666641 15.8442 0.666641 15.6522V11.8261C0.666641 11.4428 0.965308 11.1305 1.33331 11.1305H3.99997C4.36797 11.1305 4.66664 11.4428 4.66664 11.8261V15.6522C4.66664 15.8442 4.51731 16 4.33331 16ZM1.33331 15.3043H3.99997V11.8261H1.33331V15.3043Z" fill="#4F4F4F"/>
<path d="M9.66667 16H6.33334C6.14934 16 6.00001 15.8442 6.00001 15.6522V7.65226C6.00001 7.26896 6.29867 6.95661 6.66667 6.95661H9.33334C9.70134 6.95661 10 7.26896 10 7.65226V15.6522C10 15.8442 9.85067 16 9.66667 16ZM6.66667 15.3044H9.33334V7.65226H6.66667V15.3044Z" fill="#4F4F4F"/>
<path d="M14.9999 16H11.6666C11.4826 16 11.3333 15.8442 11.3333 15.6522V9.04354C11.3333 8.66024 11.6319 8.3479 11.9999 8.3479H14.6666C15.0346 8.3479 15.3333 8.66024 15.3333 9.04354V15.6522C15.3333 15.8442 15.1839 16 14.9999 16ZM11.9999 15.3044H14.6666V9.04354H11.9999V15.3044Z" fill="#4F4F4F"/>
<path d="M1.66664 6.95662C1.5813 6.95662 1.49597 6.92253 1.43064 6.85505C1.30064 6.7194 1.30064 6.49888 1.43064 6.36323L4.76397 2.88501C4.84664 2.79875 4.96597 2.76258 5.08064 2.79319L10.2313 4.13647L14.098 0.101738C14.228 -0.0339127 14.4393 -0.0339127 14.5693 0.101738C14.6993 0.237389 14.6993 0.457908 14.5693 0.593558L10.5693 4.76742C10.4873 4.85368 10.3673 4.88847 10.2526 4.85855L5.10197 3.51596L1.90197 6.85505C1.8373 6.92253 1.75197 6.95662 1.66664 6.95662Z" fill="#4F4F4F"/>
<path d="M14.3333 3.47839C14.1493 3.47839 13.9999 3.32257 13.9999 3.13057V0.695813H11.6666C11.4826 0.695813 11.3333 0.539989 11.3333 0.347991C11.3333 0.155993 11.4826 0.000168841 11.6666 0.000168841H14.3333C14.5173 0.000168841 14.6666 0.155993 14.6666 0.347991V3.13057C14.6666 3.32257 14.5173 3.47839 14.3333 3.47839Z" fill="#4F4F4F"/>
</svg>
