<svg width="14" height="16" viewBox="0 0 14 16" fill="none" xmlns="http://www.w3.org/2000/svg">
<path d="M13.9504 13.3132L11.9656 9.34558C12.6153 8.38794 12.9953 7.2334 12.9953 5.9917C12.9953 2.68787 10.3058 0 7.00002 0C3.69422 0 1.00476 2.68787 1.00476 5.9917C1.00476 7.2334 1.38475 8.38806 2.03455 9.34583L0.0494858 13.3132C-0.0231891 13.4586 -0.015372 13.6311 0.0700058 13.7693C0.155506 13.9075 0.306474 13.9917 0.469046 13.9917H2.7464L4.11281 15.8125C4.20197 15.9312 4.34121 16 4.48803 16C4.6826 16 4.83589 15.884 4.90759 15.7408L6.78956 11.9792C6.85943 11.9817 6.92954 11.9834 7.00002 11.9834C7.07049 11.9834 7.1406 11.9817 7.21047 11.9792L9.09244 15.7408C9.1639 15.8838 9.31731 16 9.512 16C9.6587 16 9.79806 15.9312 9.8871 15.8125L11.2536 13.9917H13.531C13.6936 13.9917 13.8445 13.9075 13.9299 13.7693C14.0154 13.6311 14.0232 13.4586 13.9504 13.3132ZM4.40803 14.6432L3.35613 13.2417C3.26758 13.1237 3.12858 13.0542 2.98091 13.0542H1.22792L2.68337 10.1453C3.50979 11.0027 4.58855 11.6156 5.79911 11.8625L4.40803 14.6432ZM1.94282 5.9917C1.94282 3.20483 4.2115 0.9375 7.00002 0.9375C9.78853 0.9375 12.0572 3.20483 12.0572 5.9917C12.0572 8.77856 9.78853 11.0459 7.00002 11.0459C4.2115 11.0459 1.94282 8.77856 1.94282 5.9917ZM11.019 13.0542C10.8715 13.0542 10.7325 13.1237 10.6438 13.2417L9.59201 14.6432L8.2008 11.8625C9.41148 11.6155 10.4904 11.0027 11.3168 10.145L12.772 13.0541L11.019 13.0542Z" fill="#4F4F4F"/>
<path d="M9.39416 6.76917L10.704 5.20667C10.8078 5.08289 10.8406 4.91443 10.7906 4.76086C10.7407 4.60718 10.6151 4.49011 10.4584 4.45093L8.4798 3.9563L7.39749 2.22839C7.31175 2.09143 7.16151 2.0083 6.99992 2.0083C6.83832 2.0083 6.68809 2.09143 6.60234 2.22839L5.52028 3.9563L3.54182 4.45093C3.38499 4.49011 3.25943 4.60718 3.20947 4.76074C3.15964 4.91443 3.19225 5.08289 3.29607 5.20667L4.60593 6.76917L4.46497 8.80249C4.45386 8.96362 4.52641 9.11914 4.6571 9.21411C4.85559 9.35828 5.05749 9.29004 5.10818 9.26965L6.99992 8.50769L8.89166 9.26978C9.04153 9.33008 9.21192 9.30908 9.34261 9.21423C9.47343 9.11926 9.54598 8.96375 9.53487 8.80261L9.39416 6.76917ZM8.55369 6.31189C8.47577 6.40491 8.43693 6.52429 8.44535 6.64526L8.54734 8.12024L7.17532 7.5675C7.02325 7.50623 6.88987 7.54114 6.82464 7.5675L5.45262 8.12024L5.55485 6.64539C5.56316 6.52441 5.52432 6.40491 5.44639 6.31189L4.49636 5.17871L5.93142 4.81995C6.04916 4.79053 6.15078 4.71667 6.21515 4.61389L7.00004 3.3606L7.78505 4.61389C7.84942 4.71667 7.95104 4.79053 8.06879 4.81995L9.50384 5.17871L8.55369 6.31189Z" fill="#4F4F4F"/>
</svg>
