<svg width="19" height="16" viewBox="0 0 19 16" fill="none" xmlns="http://www.w3.org/2000/svg">
<path d="M12.4831 7.451H10.9308V5.89871C10.9329 5.58563 10.6808 5.33011 10.3677 5.32801H8.12677C7.81369 5.32801 7.55988 5.58183 7.55988 5.8949V7.44719H6.01139C5.69832 7.4451 5.44279 7.69716 5.4407 8.01023C5.4407 8.0128 5.4407 8.01532 5.4407 8.01789V10.2512C5.4407 10.5643 5.69451 10.8181 6.00759 10.8181H7.55988V12.3666C7.55778 12.6797 7.80989 12.9352 8.12296 12.9373H10.3601C10.6732 12.9373 10.927 12.6835 10.927 12.3704V10.8181H12.4793C12.7923 10.8202 13.0479 10.5681 13.05 10.255V8.01789C13.05 7.70481 12.7962 7.451 12.4831 7.451ZM12.289 10.0572H10.5503C10.3402 10.0572 10.1699 10.2275 10.1699 10.4376V12.1764H8.3208V10.4376C8.3208 10.2275 8.15045 10.0572 7.94034 10.0572H6.20162V8.21192H7.94034C8.15045 8.21192 8.3208 8.04157 8.3208 7.83146V6.08894H10.166V7.82766C10.166 8.03777 10.3364 8.20812 10.5465 8.20812H12.289V10.0572Z" fill="#4F4F4F"/>
<path d="M15.8653 2.48215H12.7303V1.14292C12.75 0.531797 12.2706 0.02036 11.6595 0.000623467C11.6283 -0.000375249 11.5972 -8.99448e-05 11.5661 0.00152702H6.92443C6.31379 -0.0302892 5.79298 0.438917 5.76112 1.04951C5.7595 1.08062 5.75917 1.11177 5.76021 1.14292V2.47454H2.6252C1.41532 2.47454 0 3.16318 0 5.09973V13.3748C0 15.3114 1.41532 16 2.6252 16H15.8653C17.0752 16 18.4905 15.3114 18.4905 13.3748V5.10734C18.4905 3.17078 17.079 2.48215 15.8653 2.48215ZM6.52114 1.14292C6.52114 1.03258 6.52114 0.735821 6.92823 0.735821H11.5661C11.9732 0.735821 11.9732 1.02878 11.9732 1.14292V2.47454H6.52114V1.14292ZM17.7296 13.3748C17.7296 15.0565 16.4284 15.2391 15.8653 15.2391H2.6252C2.06592 15.2391 0.760926 15.0565 0.760926 13.3748V5.10734C0.760926 3.42569 2.06211 3.24307 2.6252 3.24307H15.8653C16.4246 3.24307 17.7296 3.42569 17.7296 5.10734V13.3748Z" fill="#4F4F4F"/>
</svg>
