<svg width="19" height="16" viewBox="0 0 19 16" fill="none" xmlns="http://www.w3.org/2000/svg">
<path d="M16.2513 8.17436H10.8593C10.6621 8.17436 10.5024 8.33419 10.5024 8.53123C10.5024 8.72828 10.6621 8.88811 10.8593 8.88811H16.2513C16.4484 8.88811 16.6082 8.72828 16.6082 8.53123C16.6082 8.33419 16.4485 8.17436 16.2513 8.17436Z" fill="#4F4F4F"/>
<path d="M16.2513 12.302H10.8593C10.6621 12.302 10.5024 12.4618 10.5024 12.6589C10.5024 12.8561 10.6621 13.0158 10.8593 13.0158H16.2513C16.4484 13.0158 16.6082 12.8561 16.6082 12.6589C16.6082 12.4618 16.4485 12.302 16.2513 12.302Z" fill="#4F4F4F"/>
<path d="M5.26942 13.0158H9.39708C9.59413 13.0158 9.75396 12.8561 9.75396 12.6589V8.53124C9.75396 8.33419 9.59413 8.17436 9.39708 8.17436H5.26942C5.07237 8.17436 4.91254 8.33419 4.91254 8.53124V12.6589C4.91254 12.8561 5.07237 13.0158 5.26942 13.0158ZM5.62631 8.88813H9.04019V12.302H5.62631V8.88813Z" fill="#4F4F4F"/>
<path d="M17.8446 0H2.86314C2.66595 0 2.50625 0.159835 2.50625 0.356886V2.40738H0.356886C0.159835 2.40738 0 2.56708 0 2.76427V14.39C0 15.2778 0.722242 16 1.61001 16H16.5914C17.4792 16 18.2014 15.2778 18.2014 14.39V0.356886C18.2014 0.159696 18.0416 0 17.8446 0ZM2.50625 6.69695H1.9669V5.51895H2.50611L2.50625 6.69695ZM0.713771 14.39V3.12115H2.50625V4.80518H1.61001C1.41296 4.80518 1.25313 4.96501 1.25313 5.16207V7.05384C1.25313 7.25089 1.41296 7.41072 1.61001 7.41072H2.50611V8.76078H1.61001C1.41296 8.76078 1.25313 8.92061 1.25313 9.11766C1.25313 9.31471 1.41296 9.47455 1.61001 9.47455H2.50611V10.8246H1.61001C1.41296 10.8246 1.25313 10.9844 1.25313 11.1815C1.25313 11.3787 1.41296 11.5385 1.61001 11.5385H2.50611V12.8884H1.61001C1.41296 12.8884 1.25313 13.0483 1.25313 13.2455C1.25313 13.4425 1.41296 13.6023 1.61001 13.6023H2.50611V14.39C2.50611 14.8842 2.1041 15.2862 1.61001 15.2862C1.11579 15.2862 0.713771 14.8842 0.713771 14.39ZM17.4877 14.39C17.4877 14.8842 17.0857 15.2862 16.5914 15.2862H2.94687C3.12421 15.0227 3.21989 14.7077 3.21989 14.39V0.713771H17.4877V14.39Z" fill="#4F4F4F"/>
<path d="M6.64916 4.58884H14.0902C14.2873 4.58884 14.447 4.429 14.447 4.23195V2.34018C14.447 2.14313 14.2873 1.98329 14.0902 1.98329H6.64916C6.45211 1.98329 6.29228 2.14313 6.29228 2.34018V4.23195C6.29228 4.429 6.45211 4.58884 6.64916 4.58884ZM7.00605 2.69707H13.7333V3.87507H7.00605V2.69707Z" fill="#4F4F4F"/>
<path d="M5.26942 6.73848H6.64919C6.84624 6.73848 7.00608 6.57864 7.00608 6.38159C7.00608 6.18455 6.84624 6.02471 6.64919 6.02471H5.26942C5.07237 6.02471 4.91254 6.18455 4.91254 6.38159C4.91254 6.57864 5.07237 6.73848 5.26942 6.73848Z" fill="#4F4F4F"/>
<path d="M8.37296 6.18358C8.28964 6.05887 8.13383 5.99902 7.9883 6.03624C7.84582 6.07262 7.73917 6.19482 7.72167 6.34091C7.70431 6.48714 7.78333 6.63281 7.91442 6.69947C8.04718 6.76696 8.21118 6.74335 8.32033 6.64211C8.44656 6.52491 8.4685 6.32633 8.37296 6.18358Z" fill="#4F4F4F"/>
<path d="M9.1398 6.38159C9.1398 6.57864 9.29964 6.73848 9.49669 6.73848H16.2514C16.4484 6.73848 16.6083 6.57864 16.6083 6.38159C16.6083 6.18455 16.4484 6.02471 16.2514 6.02471H9.49669C9.29964 6.02471 9.1398 6.18455 9.1398 6.38159Z" fill="#4F4F4F"/>
<path d="M16.1152 10.9224C16.2525 10.9793 16.4159 10.9429 16.5158 10.8327C16.6159 10.7221 16.6362 10.5563 16.5659 10.4248C16.495 10.2921 16.3433 10.2161 16.1943 10.2407C16.0449 10.2653 15.9239 10.385 15.8992 10.5347C15.8726 10.696 15.9639 10.8599 16.1152 10.9224Z" fill="#4F4F4F"/>
<path d="M10.8593 10.9499H14.831C15.0281 10.9499 15.1879 10.79 15.1879 10.5928C15.1879 10.3958 15.0281 10.236 14.831 10.236H10.8593C10.6621 10.236 10.5024 10.3958 10.5024 10.5928C10.5024 10.79 10.6621 10.9499 10.8593 10.9499Z" fill="#4F4F4F"/>
</svg>
